Coordinates
version=1
nRows=21
nColumns=33
inDegrees=yes

Units are S.I. units (second, meters, Newtons, ...)
Angles are in degrees.

endheader
time	ground_thorax_rot_x	ground_thorax_rot_y	ground_thorax_rot_z	ground_thorax_tx	ground_thorax_ty	ground_thorax_tz	clav_prot_r	clav_elev_r	scapula_abduction_r	scapula_elevation_r	scapula_upward_rot_r	scapula_winging_r	shoulder_elv_r	plane_of_elev_r	axial_rot_r	elbow_flexion_r	pro_sup_r	wrist_flex_r	wrist_dev_r	clav_prot_l	clav_elev_l	scapula_abduction_l	scapula_elevation_l	scapula_upward_rot_l	scapula_winging_l	shoulder_elv_l	plane_of_elev_l	axial_rot_l	elbow_flexion_l	pro_sup_l	wrist_flex_l	wrist_dev_l
      4.49000000	     37.98239469	      9.39575045	     14.67421103	   -228.94480475	    829.73375962	      4.85939816	     14.01091408	     37.11422341	     35.07782737	     45.00000000	    -45.00000000	   2074.67628887	   -465.67964148	    146.80282900	    179.99999979	    732.19317102	     60.80100283	     25.20008087	      7.94351843	     10.61630833	    -45.00000000	    -36.89310866	     45.00000000	    -45.00000000	  -2419.80319464	   1346.08722941	    137.72510348	   -179.99999979	   1448.00722817	     27.02053562	      7.34510050	    -23.57293369
      4.50000000	     37.97872162	      9.63829839	     14.75714970	   -227.26761697	    829.73534232	      4.86886113	     13.63168329	     36.90320858	     35.06393481	     45.00000000	    -45.00000000	   2074.65925754	   -465.52908820	    146.63370158	    179.99999979	    732.46340427	     60.50613301	     25.08264907	      7.90521281	     11.02931696	    -45.00000000	    -37.02748198	     45.00000000	    -45.00000000	  -2419.75195346	   1346.09305459	    137.56746995	   -179.99999979	   1447.99837499	     26.61272321	      7.44252548	    -23.51850966
      4.51000000	     37.99854543	      9.80283278	     14.77347701	   -225.41895284	    829.73507312	      4.89656503	     13.89419199	     37.02387052	     35.27903312	     45.00000000	    -45.00000000	   2074.64720752	   -465.54670376	    146.55410341	    179.99999979	    732.60028019	     60.13019742	     25.01966628	      7.93838772	     10.87088127	    -45.00000000	    -37.00617454	     45.00000000	    -45.00000000	  -2419.89315427	   1346.20639422	    137.55372105	   -179.99999979	   1448.18125385	     26.11395919	      7.49863334	    -23.47877308
      4.52000000	     38.01997312	     10.04533812	     14.85887007	   -223.39762619	    829.72397448	      4.94321597	     13.83597451	     36.99443554	     35.46492971	     45.00000000	    -45.00000000	   2074.58949519	   -465.40004696	    146.41820797	    179.99999979	    732.71014562	     59.65580963	     24.91817172	      7.99367576	     11.02403181	    -45.00000000	    -37.08037301	     45.00000000	    -45.00000000	  -2419.95433830	   1346.27080041	    137.48362834	   -179.99999979	   1448.24104382	     25.63350530	      7.59709889	    -23.42358299
      4.53000000	     38.03762875	     10.27586324	     14.95257955	   -221.19816751	    829.68923125	      5.00905488	     14.30700405	     37.24257892	     35.80275419	     45.00000000	    -45.00000000	   2074.67598993	   -465.36984745	    146.57615105	    179.99999979	    732.87740160	     58.91325008	     24.86900001	      8.10612089	     10.55980996	    -45.00000000	    -37.12918404	     45.00000000	    -45.00000000	  -2420.11143798	   1346.34581143	    137.56642476	   -179.99999979	   1448.49118928	     24.99627057	      7.66937500	    -23.37112021
      4.54000000	     38.03725576	     10.60715256	     15.03038020	   -218.82114253	    829.61717104	      5.09365509	     14.15317281	     37.17571161	     35.92255693	     45.00000000	    -45.00000000	   2074.57717151	   -465.29263122	    146.33657802	    179.99999979	    732.89221816	     58.15438959	     24.75589343	      8.26168272	     10.89333065	    -45.00000000	    -37.23765035	     45.00000000	    -45.00000000	  -2420.19414875	   1346.43626367	    137.46035785	   -179.99999979	   1448.60294815	     24.47635119	      7.80204184	    -23.32543281
      4.55000000	     38.04854081	     10.88584389	     15.18546427	   -216.26433791	    829.49127565	      5.19641250	     14.15827656	     37.17670336	     36.16637066	     45.00000000	    -45.00000000	   2074.56309332	   -465.29881013	    146.27783984	    179.99999979	    732.94457981	     57.24850792	     24.65358137	      8.44417357	     10.92780528	    -45.00000000	    -37.31485425	     45.00000000	    -45.00000000	  -2420.27905262	   1346.49498902	    137.38601358	   -179.99999979	   1448.70894063	     23.95461042	      7.93525194	    -23.26399729
      4.56000000	     38.04723945	     11.22406174	     15.36865758	   -213.52733410	    829.29498688	      5.31631711	     14.17529151	     37.16400036	     36.34376137	     45.00000000	    -45.00000000	   2074.50629428	   -465.32686585	    146.13014490	    179.99999979	    733.06556414	     56.21419354	     24.55849571	      8.65545654	     11.03437173	    -45.00000000	    -37.32522493	     45.00000000	    -45.00000000	  -2420.35385143	   1346.58380729	    137.28776154	   -179.99999979	   1448.81488987	     23.40705690	      8.07639967	    -23.19003030
      4.57000000	     38.10577883	     11.57676767	     15.51130697	   -210.60488661	    829.01091962	      5.45242229	     14.47535568	     37.32555912	     36.59503456	     45.00000000	    -45.00000000	   2074.51820771	   -465.23837972	    146.11246880	    179.99999979	    732.99349066	     55.02782446	     24.45982067	      8.94793131	     10.83726032	    -45.00000000	    -37.46357478	     45.00000000	    -45.00000000	  -2420.58605351	   1346.63281224	    137.30336965	   -179.99999979	   1448.98418116	     22.80670835	      8.22265887	    -23.11864129
      4.58000000	     38.11569085	     11.99295908	     15.76169008	   -207.49382945	    828.62269869	      5.60360394	     14.28211250	     37.24328654	     36.76810643	     45.00000000	    -45.00000000	   2074.49155129	   -465.23987534	    145.98687902	    179.99999979	    732.91651697	     53.82974782	     24.32063963	      9.24694715	     11.10337004	    -45.00000000	    -37.54191107	     45.00000000	    -45.00000000	  -2420.66064403	   1346.66957660	    137.15623360	   -179.99999979	   1449.06150920	     22.22900959	      8.43353611	    -23.03399852
      4.59000000	     38.10380262	     12.40729901	     16.08756070	   -204.18955491	    828.11469375	      5.76768682	     14.66896698	     37.43644319	     36.98194315	     45.00000000	    -45.00000000	   2074.61342528	   -465.25510290	    146.04837539	    179.99999979	    732.89474590	     52.42440410	     24.20875332	      9.59841454	     10.77644673	    -45.00000000	    -37.58836705	     45.00000000	    -45.00000000	  -2420.86752914	   1346.71889811	    137.23470800	   -179.99999979	   1449.23310179	     21.50977155	      8.60068371	    -22.92219264
      4.60000000	     38.11136628	     12.77644350	     16.37713478	   -200.68672297	    827.47286988	      5.94268901	     14.84648521	     37.48953587	     37.28532254	     45.00000000	    -45.00000000	   2074.61499223	   -465.33361541	    146.02572446	    179.99999979	    732.81770843	     50.94258444	     24.07733721	      9.99804789	     10.69507646	    -45.00000000	    -37.61635216	     45.00000000	    -45.00000000	  -2421.03501887	   1346.75902644	    137.14764029	   -179.99999979	   1449.33524588	     20.71463070	      8.83188471	    -22.78680281
      4.61000000	     38.12674365	     13.33993480	     16.73106137	   -196.98517555	    826.68475676	      6.12595408	     14.51346606	     37.36509248	     37.36077907	     45.00000000	    -45.00000000	   2074.60095152	   -465.34987981	    145.86488168	    179.99999979	    732.58393250	     49.67226803	     23.87536898	     10.37116652	     11.08085128	    -45.00000000	    -37.78050505	     45.00000000	    -45.00000000	  -2421.14474482	   1346.73570928	    136.96748301	   -179.99999979	   1449.40213403	     20.07840681	      9.17943140	    -22.68488460
      4.62000000	     38.07916667	     13.76596065	     17.14991390	   -193.09110498	    825.73940646	      6.31263472	     14.67244563	     37.42772439	     37.51856534	     45.00000000	    -45.00000000	   2074.64219185	   -465.47574675	    145.73426822	    179.99999979	    732.47514494	     48.37671941	     23.72490448	     10.77551839	     11.02741218	    -45.00000000	    -37.77202073	     45.00000000	    -45.00000000	  -2421.38262238	   1346.71772032	    136.91231127	   -179.99999979	   1449.36352842	     19.35364368	      9.43812863	    -22.49405618
      4.63000000	     38.05584660	     14.13780605	     17.49875174	   -188.99793967	    824.62576375	      6.49550044	     15.03973477	     37.60540090	     37.78640807	     45.00000000	    -45.00000000	   2074.76754033	   -465.56331098	    145.78445823	    179.99999979	    732.39136474	     46.99415613	     23.55344282	     11.18166447	     10.77234595	    -45.00000000	    -37.87097415	     45.00000000	    -44.56663009	  -2421.62259148	   1346.64396629	    137.02566054	   -179.99999979	   1449.50530005	     18.57042545	      9.78770583	    -22.34805131
      4.64000000	     38.00118790	     14.55390448	     17.94505977	   -184.71693146	    823.33808795	      6.66536206	     15.23041277	     37.67270111	     38.02338969	     45.00000000	    -45.00000000	   2074.89741010	   -465.70939247	    145.79619626	    179.99999979	    732.24273355	     45.63971691	     23.38286799	     11.63966747	     10.62770423	    -45.00000000	    -37.91340700	     45.00000000	    -44.32712440	  -2421.84108840	   1346.57194164	    136.98095349	   -179.99999979	   1449.47368572	     17.73183645	     10.11288438	    -22.11093014
      4.65000000	     37.92090323	     15.03537561	     18.42208087	   -180.24286690	    821.86756788	      6.81424251	     15.25146217	     37.68868797	     38.13972354	     45.00000000	    -45.00000000	   2075.04172707	   -465.84134938	    145.74387689	    179.99999979	    732.05290974	     44.45424815	     23.18629284	     12.06794282	     10.68068731	    -45.00000000	    -37.98873321	     45.00000000	    -44.03280736	  -2422.10459964	   1346.43052745	    136.98596284	   -179.99999979	   1449.43826341	     17.03279158	     10.49499112	    -21.88853411
      4.66000000	     37.79543914	     15.61809719	     18.95950839	   -175.59213483	    820.21428678	      6.93451391	     14.92319745	     37.56803113	     38.06838717	     45.00000000	    -45.00000000	   2075.22005188	   -465.89661206	    145.59680560	    179.99999979	    731.76929369	     43.51543217	     22.92800029	     12.41041689	     10.95822517	    -45.00000000	    -38.26444353	     45.00000000	    -43.52745125	  -2422.22544046	   1346.13209865	    136.92360205	   -179.99999979	   1449.35837428	     16.69104763	     11.08644318	    -21.71395283
      4.67000000	     37.68508597	     16.04569833	     19.50761740	   -170.77138418	    818.37809340	      7.02138970	     15.31598662	     37.70987735	     38.31686172	     45.00000000	    -45.00000000	   2075.43309312	   -466.16833813	    145.70535438	    179.99999979	    731.66660057	     42.57040717	     22.75182444	     12.79648924	     10.62927838	    -45.00000000	    -38.22661605	     45.00000000	    -43.22431923	  -2422.53019967	   1346.00094154	    136.96598312	   -179.99999979	   1449.32995757	     16.24545227	     11.33705510	    -21.45846564
      4.68000000	     37.60234891	     16.54019140	     20.09847612	   -165.79307213	    816.36484247	      7.07356375	     15.62968012	     37.85779860	     38.49851315	     45.00000000	    -45.00000000	   2075.55266280	   -466.40471379	    145.65137223	    179.99999979	    731.38272630	     41.82700899	     22.55860861	     13.19164995	     10.57435180	    -45.00000000	    -38.16580840	     45.00000000	    -43.12399629	  -2422.92213549	   1345.78869362	    136.96309941	   -179.99999979	   1449.22367647	     15.98848166	     11.66117471	    -21.23037704
      4.69000000	     37.39625574	     17.10516644	     20.79852756	   -160.66560910	    814.18098863	      7.09253744	     15.69739068	     37.89421002	     38.49444818	     45.00000000	    -45.00000000	   2075.82765304	   -466.62508603	    145.66779733	    179.99999979	    731.19060606	     41.24256690	     22.35135916	     13.50597012	     10.54542120	    -45.00000000	    -38.27791854	     45.00000000	    -42.82619411	  -2423.20176829	   1345.54327152	    137.02201353	   -179.93774094	   1449.13281499	     15.94685999	     12.00748471	    -21.00827135
